<?xml version="1.0" encoding="UTF-8"?><svg id="_レイヤー_2" xmlns="http://www.w3.org/2000/svg" viewBox="0 0 961.29 85.59"><defs><style>.cls-1{fill:#1b1b1b;}</style></defs><g id="_レイヤー_1-2"><g><path class="cls-1" d="M64.98,5.13V84.51h-14.13v-5.94H13.5v5.94H0V5.13H64.98ZM13.5,18.36v16.47H50.85V18.36H13.5Zm37.35,46.98v-17.55H13.5v17.55H50.85Z"/><path class="cls-1" d="M172.8,11.52v23.13h-13.05v-11.97h-53.55v11.97h-12.51V11.52h10.98c-1.08-2.16-2.52-4.5-3.96-6.39L112.68,.45c2.43,2.7,4.86,6.48,5.94,9.18l-4.41,1.89h11.61V0h13.59V11.52h12.15l-4.5-1.53c2.07-2.7,4.5-6.48,5.85-9.27l14.22,4.05c-2.34,2.52-4.5,4.86-6.48,6.75h12.15Zm-4.95,58.77c0,5.67-1.17,8.91-5.22,10.8-4.05,1.8-9.09,1.89-15.21,1.89-.63-3.6-2.43-8.64-4.14-11.88,3.24,.18,8.1,.18,9.27,.18,1.35,0,1.8-.27,1.8-1.26v-6.48h-13.5v22.05h-13.59v-22.05h-14.22v18.09h-13.32v-29.7h27.54v-4.23h-18.54V25.83h48.69v21.87h-16.56v4.23h27v18.36Zm-46.62-31.59h22.77v-3.87h-22.77v3.87Z"/><path class="cls-1" d="M214.29,16.56c-.99,4.68-4.32,23.76-4.32,32.13,0,.27,0,1.71,.09,2.07,1.26-2.52,2.34-4.32,3.51-6.93l6.57,5.22c-2.7,8.19-5.49,18.09-6.48,23.13-.27,1.35-.54,3.51-.54,4.32,0,.99,0,2.61,.09,4.05l-12.6,.81c-1.8-6.03-3.6-17.37-3.6-29.61,0-13.77,2.61-28.8,3.51-35.46,.36-2.7,.99-6.75,1.08-10.17l15.21,1.26c-.81,2.07-2.16,7.56-2.52,9.18Zm22.86,42.93c0,3.96,3.78,5.49,11.16,5.49,8.01,0,14.49-.72,22.68-2.43l.27,14.76c-5.94,1.08-13.05,1.71-23.67,1.71-15.75,0-23.58-5.85-23.58-15.48,0-3.87,.54-7.65,1.62-12.33l12.42,1.08c-.63,2.88-.9,4.86-.9,7.2Zm31.32-46.71v14.04c-11.79,.99-27.54,1.08-39.6,0l-.09-13.95c11.79,1.44,29.61,.99,39.69-.09Z"/><path class="cls-1" d="M295.29,29.34c0-9.9,4.95-17.46,15.21-22.5l3.42,7.02c-6.39,2.97-9.45,7.02-9.45,12.96,.36-.09,.63-.09,.99-.09,4.5,0,8.19,3.06,8.19,7.92,0,5.31-3.42,8.73-8.19,8.73-6.66,0-10.17-5.13-10.17-14.04Zm25.2,0c0-9.9,4.95-17.46,15.21-22.5l3.42,7.02c-6.39,2.97-9.45,7.02-9.45,12.96,.36-.09,.63-.09,.99-.09,4.5,0,8.19,3.06,8.19,7.92,0,5.31-3.42,8.73-8.19,8.73-6.66,0-10.17-5.13-10.17-14.04Z"/><path class="cls-1" d="M380.34,3.24l15.75,.45c-.63,2.79-1.35,7.38-2.07,12.78l3.42,4.59c-1.17,1.53-3.24,4.77-4.86,7.11,0,.36,0,.63-.09,.9,8.73-6.03,17.55-8.19,25.29-8.19,14.58,0,25.47,10.35,25.47,25.11,0,18.27-10.44,29.88-34.29,34.65l-6.48-13.14c16.11-2.52,26.1-8.55,26.1-21.78,0-7.11-5.76-12.06-13.14-12.06-9.09,0-16.83,4.23-24.03,10.62-.09,2.07-.09,4.05-.09,5.94,0,6.84,0,15.66,.63,24.3,.09,1.62,.45,5.49,.72,7.74h-14.94c.18-2.34,.27-6.03,.27-7.47,.09-5.4,.18-10.17,.36-15.84-3.42,5.04-7.02,10.44-9.54,13.77l-8.46-11.97c5.04-6.3,13.5-17.1,18.9-24.84,.09-1.62,.27-3.24,.36-4.86-4.68,.54-11.07,1.35-15.75,1.98l-1.35-13.86c2.88,.09,5.13,.09,8.91-.09,2.43-.18,5.67-.54,9.09-.99,.18-2.88,.27-5.13,.27-6.03,0-2.88,.09-5.76-.45-8.82Z"/><path class="cls-1" d="M516.87,19.8c-5.67,4.23-16.92,12.87-22.59,17.82-4.41,3.78-4.23,4.59,.09,8.46,5.94,5.13,23.67,18.9,32.67,27.45l-12.78,11.79c-2.88-3.24-5.85-6.39-8.82-9.36-4.95-5.22-17.91-16.29-26.1-23.31-9.18-7.92-8.64-13.32,.9-21.15,7.2-5.85,18.81-15.39,24.84-21.15,3.06-2.97,6.3-6.12,7.92-8.55l12.69,11.25c-3.33,2.43-6.39,4.77-8.82,6.75Z"/><path class="cls-1" d="M581.94,3.24l15.75,.45c-.63,2.79-1.35,7.38-2.07,12.78l3.42,4.59c-1.17,1.53-3.24,4.77-4.86,7.11,0,.36,0,.63-.09,.9,8.73-6.03,17.55-8.19,25.29-8.19,14.58,0,25.47,10.35,25.47,25.11,0,18.27-10.44,29.88-34.29,34.65l-6.48-13.14c16.11-2.52,26.1-8.55,26.1-21.78,0-7.11-5.76-12.06-13.14-12.06-9.09,0-16.83,4.23-24.03,10.62-.09,2.07-.09,4.05-.09,5.94,0,6.84,0,15.66,.63,24.3,.09,1.62,.45,5.49,.72,7.74h-14.94c.18-2.34,.27-6.03,.27-7.47,.09-5.4,.18-10.17,.36-15.84-3.42,5.04-7.02,10.44-9.54,13.77l-8.46-11.97c5.04-6.3,13.5-17.1,18.9-24.84,.09-1.62,.27-3.24,.36-4.86-4.68,.54-11.07,1.35-15.75,1.98l-1.35-13.86c2.88,.09,5.13,.09,8.91-.09,2.43-.18,5.67-.54,9.09-.99,.18-2.88,.27-5.13,.27-6.03,0-2.88,.09-5.76-.45-8.82Z"/><path class="cls-1" d="M718.47,19.8c-5.67,4.23-16.92,12.87-22.59,17.82-4.41,3.78-4.23,4.59,.09,8.46,5.94,5.13,23.67,18.9,32.67,27.45l-12.78,11.79c-2.88-3.24-5.85-6.39-8.82-9.36-4.95-5.22-17.91-16.29-26.1-23.31-9.18-7.92-8.64-13.32,.9-21.15,7.2-5.85,18.81-15.39,24.84-21.15,3.06-2.97,6.3-6.12,7.92-8.55l12.69,11.25c-3.33,2.43-6.39,4.77-8.82,6.75Z"/><path class="cls-1" d="M767.88,34.92c6.39-3.06,9.54-7.02,9.54-13.05-.36,.09-.63,.09-.99,.09-4.59,0-8.28-3.06-8.28-7.92,0-5.31,3.51-8.64,8.28-8.64,6.66,0,10.08,5.13,10.08,13.86,0,9.9-4.95,17.64-15.12,22.59l-3.51-6.93Zm25.2,0c6.39-3.06,9.54-7.02,9.54-13.05-.36,.09-.63,.09-.99,.09-4.59,0-8.28-3.06-8.28-7.92,0-5.31,3.51-8.64,8.28-8.64,6.66,0,10.08,5.13,10.08,13.86,0,9.9-4.95,17.64-15.12,22.59l-3.51-6.93Z"/><path class="cls-1" d="M871.2,12.42c8.1-.45,16.65-1.17,24.21-2.52l-.09,12.6c-8.37,1.08-19.44,1.89-28.98,2.25-1.17,2.34-2.34,4.59-3.51,6.39,1.8-.54,6.39-.9,8.91-.9,5.31,0,9.63,2.16,11.97,6.3,3.6-1.71,6.57-2.88,9.72-4.32,3.96-1.71,7.65-3.42,11.52-5.31l5.31,12.6c-3.15,.9-8.82,2.97-12.24,4.32-3.42,1.35-7.83,3.06-12.6,5.13,.09,4.95,.27,10.98,.36,15.03h-12.96c.18-2.34,.36-5.67,.45-9.09-5.67,3.33-8.1,6.3-8.1,9.9,0,3.78,2.79,5.31,11.25,5.31,8.01,0,18.27-1.08,26.19-2.79l-.45,14.04c-5.49,.81-17.1,1.62-26.01,1.62-14.76,0-25.38-3.87-25.38-15.84s10.71-19.26,20.7-24.48c-1.35-1.44-3.24-1.89-4.95-1.89-4.59,0-10.17,2.97-13.23,6.03-2.7,2.79-5.31,6.03-8.37,10.17l-11.61-8.73c8.46-7.56,14.85-14.94,19.26-23.22-3.69,0-10.26-.18-15.03-.63V11.79c4.5,.72,11.34,1.08,16.2,1.08h3.51c.81-3.33,1.35-6.75,1.53-9.81l14.4,1.17c-.36,1.98-.99,4.77-1.98,8.19Z"/><path class="cls-1" d="M961.29,69.57c0,8.28-6.66,15.03-15.03,15.03s-15.03-6.75-15.03-15.03,6.75-15.03,15.03-15.03,15.03,6.75,15.03,15.03Zm-7.56,0c0-4.14-3.33-7.47-7.47-7.47s-7.47,3.33-7.47,7.47,3.42,7.47,7.47,7.47,7.47-3.33,7.47-7.47Z"/></g></g></svg>