<?xml version="1.0" encoding="UTF-8"?><svg id="_レイヤー_2" xmlns="http://www.w3.org/2000/svg" viewBox="0 0 559 280"><defs><style>.cls-1{fill:#fff;}</style></defs><g id="deco-job"><rect id="_長方形_4" class="cls-1" x="519" y="0" width="40" height="40"/><rect id="_長方形_4-2" class="cls-1" x="479" y="40" width="40" height="40"/><rect id="_長方形_4-3" class="cls-1" x="439" y="0" width="40" height="40"/><rect id="_長方形_4-4" class="cls-1" x="359" y="0" width="40" height="40"/><rect id="_長方形_4-5" class="cls-1" x="319" y="0" width="40" height="40"/><rect id="_長方形_4-6" class="cls-1" x="239" y="0" width="40" height="40"/><rect id="_長方形_4-7" class="cls-1" x="199" y="160" width="40" height="40"/><rect id="_長方形_4-8" class="cls-1" x="159" y="0" width="40" height="40"/><rect id="_長方形_4-9" class="cls-1" x="79" y="0" width="40" height="40"/><rect id="_長方形_4-10" class="cls-1" x="0" y="0" width="40" height="40"/><rect id="_長方形_4-11" class="cls-1" x="519" y="80" width="40" height="40"/><rect id="_長方形_4-13" class="cls-1" x="399" y="40" width="40" height="40"/><rect id="_長方形_4-14" class="cls-1" x="359" y="40" width="40" height="40"/><rect id="_長方形_4-15" class="cls-1" x="279" y="40" width="40" height="40"/><rect id="_長方形_4-16" class="cls-1" x="239" y="80" width="40" height="40"/><rect id="_長方形_4-17" class="cls-1" x="159" y="40" width="40" height="40"/><rect id="_長方形_4-18" class="cls-1" x="119" y="40" width="40" height="40"/><rect id="_長方形_4-19" class="cls-1" x="479" y="120" width="40" height="40"/><rect id="_長方形_4-20" class="cls-1" x="399" y="80" width="40" height="40"/><rect id="_長方形_4-21" class="cls-1" x="319" y="80" width="40" height="40"/><rect id="_長方形_4-22" class="cls-1" x="199" y="80" width="40" height="40"/><rect id="_長方形_4-23" class="cls-1" x="119" y="80" width="40" height="40"/><rect id="_長方形_4-24" class="cls-1" x="79" y="80" width="40" height="40"/><rect id="_長方形_4-25" class="cls-1" x="439" y="160" width="40" height="40"/><rect id="_長方形_4-26" class="cls-1" x="439" y="80" width="40" height="40"/><rect id="_長方形_4-27" class="cls-1" x="279" y="120" width="40" height="40"/><rect id="_長方形_4-28" class="cls-1" x="319" y="160" width="40" height="40"/><rect id="_長方形_4-29" class="cls-1" x="159" y="120" width="40" height="40"/><rect id="_長方形_4-30" class="cls-1" x="519" y="160" width="40" height="40"/><rect id="_長方形_4-31" class="cls-1" x="439" y="240" width="40" height="40"/><rect id="_長方形_4-32" class="cls-1" x="359" y="160" width="40" height="40"/><rect id="_長方形_4-33" class="cls-1" x="479" y="200" width="40" height="40"/><rect id="_長方形_4-34" class="cls-1" x="399" y="200" width="40" height="40"/><rect id="_長方形_4-35" class="cls-1" x="519" y="240" width="40" height="40"/></g></svg>
