<?xml version="1.0" encoding="UTF-8"?><svg id="_レイヤー_2" xmlns="http://www.w3.org/2000/svg" xmlns:xlink="http://www.w3.org/1999/xlink" viewBox="0 0 358.64 118.83"><defs><style>.cls-1{fill:none;}.cls-2{clip-path:url(#clippath);}.cls-3{fill:#040000;}.cls-4{fill:#fff;}.cls-5{fill:#f2d4d3;}.cls-6{fill:#e83922;}.cls-7{fill:#efefef;}.cls-8{fill:#222;}.cls-9{clip-path:url(#clippath-1);}</style><clipPath id="clippath"><rect class="cls-1" x="314.5" width="29.99" height="118.82"/></clipPath><clipPath id="clippath-1"><rect class="cls-1" x="343.64" width="14.99" height="118.82"/></clipPath></defs><g id="_レイヤー_1-2"><g><g><path class="cls-8" d="m33.81,33.82c4.18-2.63,6.84-6.79,6.84-12.18,0-3.09-.87-6.21-2.41-9.03.04-.11.06-.23.06-.36V1.08c0-.83-.9-1.34-1.61-.93l-6.85,3.96c-2.53-1.37-5.36-2.17-8.36-2.17s-5.75.78-8.25,2.11L6.64.23c-.72-.41-1.61.1-1.61.93v10.91c-1.71,2.96-2.7,6.28-2.7,9.56,0,5.4,2.66,9.56,6.84,12.18C3.63,42.1,0,55,0,66.23c0,18.3,9.62,25.25,21.49,25.25s21.49-6.95,21.49-25.25c0-11.23-3.63-24.13-9.17-32.41Z"/><path class="cls-8" d="m17.54,85.75c-1.43,3.58-2.27,7.64-2.51,10.03-.49,4.93.3,10.11,2.66,14.51s6.92,8.74,12.29,8.53c2.92-.11,4.99-1.92,4.25-4.96-.31-1.28-1.42-1.51-2.52-1.77-8.88-2.12-11.02-12.14-9.25-20.01,1.05-4.69,2.19-7.55,2.19-7.55,0,0-7.11,1.2-7.12,1.23Z"/><path class="cls-6" d="m9.33,33.81c-.37-2.64,2.52-4.34,4.74-5.13,5.21-1.8,13.74-1.75,18.12,1.85.94.82,1.66,2.04,1.42,3.29-.48-2.39-3.03-3.22-5.18-3.77-4.21-1.06-18.1-1.6-19.1,3.77h0Z"/></g><g><path class="cls-5" d="m97.33,33.82c4.18-2.63,6.84-6.79,6.84-12.18,0-3.09-.87-6.21-2.41-9.03.04-.11.06-.23.06-.36V1.08c0-.83-.9-1.34-1.61-.93l-6.85,3.96c-2.53-1.37-5.36-2.17-8.36-2.17s-5.75.78-8.25,2.11l-6.6-3.81c-.72-.41-1.61.1-1.61.93v10.91c-1.71,2.96-2.7,6.28-2.7,9.56,0,5.4,2.66,9.56,6.84,12.18-5.55,8.29-9.17,21.18-9.17,32.41,0,18.3,9.62,25.25,21.49,25.25s21.49-6.95,21.49-25.25c0-11.23-3.63-24.13-9.17-32.41Z"/><path class="cls-5" d="m81.05,85.75c-1.43,3.58-2.27,7.64-2.51,10.03-.49,4.93.3,10.11,2.66,14.51s6.92,8.74,12.29,8.53c2.92-.11,4.99-1.92,4.25-4.96-.31-1.28-1.42-1.51-2.52-1.77-8.88-2.12-11.02-12.14-9.25-20.01,1.05-4.69,2.19-7.55,2.19-7.55,0,0-7.11,1.2-7.12,1.23Z"/><path class="cls-6" d="m72.85,33.81c-.37-2.64,2.52-4.34,4.74-5.13,5.21-1.8,13.74-1.75,18.12,1.85.94.82,1.66,2.04,1.42,3.29-.48-2.39-3.03-3.22-5.18-3.77-4.21-1.06-18.1-1.6-19.1,3.77h0Z"/></g><g><path class="cls-5" d="m224.07,33.82c4.18-2.63,6.84-6.79,6.84-12.18,0-3.09-.87-6.21-2.41-9.03.04-.11.06-.23.06-.36V1.08c0-.83-.9-1.34-1.61-.93l-6.85,3.96c-2.53-1.37-5.36-2.17-8.36-2.17s-5.75.78-8.25,2.11l-6.6-3.81c-.72-.41-1.61.1-1.61.93v10.91c-1.71,2.96-2.7,6.28-2.7,9.56,0,5.4,2.66,9.56,6.84,12.18-5.55,8.29-9.17,21.18-9.17,32.41,0,18.3,9.62,25.25,21.49,25.25s21.49-6.95,21.49-25.25c0-11.23-3.63-24.13-9.17-32.41Z"/><path class="cls-5" d="m207.8,85.75c-1.43,3.58-2.27,7.64-2.51,10.03-.49,4.93.3,10.11,2.66,14.51,2.4,4.45,6.92,8.74,12.29,8.53,2.92-.11,4.99-1.92,4.25-4.96-.31-1.28-1.42-1.51-2.52-1.77-8.88-2.12-11.02-12.14-9.25-20.01,1.05-4.69,2.19-7.55,2.19-7.55,0,0-7.11,1.2-7.12,1.23Z"/><path class="cls-6" d="m199.59,33.81c-.37-2.64,2.52-4.34,4.74-5.13,5.21-1.8,13.74-1.75,18.12,1.85.94.82,1.66,2.04,1.42,3.29-.48-2.39-3.03-3.22-5.18-3.77-4.21-1.06-18.1-1.6-19.1,3.77h0Z"/></g><g><path class="cls-8" d="m161.79,33.82c4.18-2.63,6.84-6.79,6.84-12.18,0-3.09-.87-6.21-2.41-9.03.04-.11.06-.23.06-.36V1.08c0-.83-.9-1.34-1.61-.93l-6.85,3.96c-2.53-1.37-5.36-2.17-8.36-2.17s-5.75.78-8.25,2.11l-6.6-3.81c-.72-.41-1.61.1-1.61.93v10.91c-1.71,2.96-2.7,6.28-2.7,9.56,0,5.4,2.66,9.56,6.84,12.18-5.55,8.29-9.17,21.18-9.17,32.41,0,18.3,9.62,25.25,21.49,25.25s21.49-6.95,21.49-25.25c0-11.23-3.63-24.13-9.17-32.41Z"/><path class="cls-8" d="m145.52,85.75c-1.43,3.58-2.27,7.64-2.51,10.03-.49,4.93.3,10.11,2.66,14.51,2.4,4.45,6.92,8.74,12.29,8.53,2.92-.11,4.99-1.92,4.25-4.96-.31-1.28-1.42-1.51-2.52-1.77-8.88-2.12-11.02-12.14-9.25-20.01,1.05-4.69,2.19-7.55,2.19-7.55,0,0-7.11,1.2-7.12,1.23Z"/><path class="cls-6" d="m137.31,33.81c-.37-2.64,2.52-4.34,4.74-5.13,5.21-1.8,13.74-1.75,18.12,1.85.94.82,1.66,2.04,1.42,3.29-.48-2.39-3.03-3.22-5.18-3.77-4.21-1.06-18.1-1.6-19.1,3.77h0Z"/></g><path class="cls-4" d="m30.86,51.86c-.29,3.27-.71,3.79-4.5,7-.6.43-1.62.46-2.19-.23-.48-.63-.46-1.48.34-2.13,2.67-2.28,2.96-2.53,3.19-3.59h-13.75c-.85,0-1.54-.68-1.54-1.54s.68-1.54,1.54-1.54h15.08c1.34,0,1.88.77,1.82,2.02Zm-8.34,5.55c.06,5.41-.14,6.89-3.67,12.95-.4.71-1.42.94-2.13.48-.74-.43-.91-1.34-.51-2.08,3.22-5.92,3.36-6.32,3.24-11.27-.03-.83.63-1.54,1.48-1.56.83-.03,1.57.63,1.59,1.48Z"/><path class="cls-3" d="m208.56,50.18v8.62c0,.83-.66,1.51-1.51,1.51-.85.03-1.54-.68-1.54-1.51v-8.62c0-.85.68-1.54,1.51-1.54s1.54.68,1.54,1.54Zm2.3,21.43c-.48.71-1.79.77-2.42.26-.65-.54-.51-1.51-.03-2.19,5.78-8.17,6.23-9.5,6.29-13.4.03-1.59-.11-3.67-.11-6.4-.03-.85.63-1.54,1.45-1.57.85,0,1.59.68,1.59,1.54.14,2.85.2,5.04.11,6.83-.28,5.55-1.91,7.8-6.89,14.94Z"/><path class="cls-4" d="m148.36,70.64c-.6.6-1.65.6-2.25,0-.6-.6-.51-1.57.06-2.16,6.03-6.23,7.66-7.85,7.94-12.66.06-.71.06-.97.06-1.82h-11.7c-.85,0-1.54-.68-1.54-1.54s.68-1.54,1.54-1.54c6.17,0,11.35.03,13.18.03.85,0,1.54.68,1.54,1.54,0,1.54,0,2.36-.08,3.53-.31,5.15-1.82,7.46-8.74,14.63Z"/><g class="cls-2"><g><path class="cls-5" d="m348.31,33.82c4.18-2.63,6.84-6.79,6.84-12.18,0-3.09-.87-6.21-2.41-9.03.04-.11.06-.23.06-.36V1.08c0-.83-.9-1.34-1.61-.93l-6.85,3.96c-2.53-1.37-5.36-2.17-8.36-2.17s-5.75.78-8.25,2.11l-6.6-3.81c-.72-.41-1.61.1-1.61.93v10.91c-1.71,2.96-2.7,6.28-2.7,9.56,0,5.4,2.66,9.56,6.84,12.18-5.55,8.29-9.17,21.18-9.17,32.41,0,18.3,9.62,25.25,21.49,25.25s21.49-6.95,21.49-25.25c0-11.23-3.63-24.13-9.17-32.41Z"/><path class="cls-5" d="m332.04,85.75c-1.43,3.58-2.27,7.64-2.51,10.03-.49,4.93.3,10.11,2.66,14.51,2.4,4.45,6.92,8.74,12.29,8.53,2.92-.11,4.99-1.92,4.25-4.96-.31-1.28-1.42-1.51-2.52-1.77-8.88-2.12-11.02-12.14-9.25-20.01,1.05-4.69,2.19-7.55,2.19-7.55,0,0-7.11,1.2-7.12,1.23Z"/><path class="cls-6" d="m323.83,33.81c-.37-2.64,2.52-4.34,4.74-5.13,5.21-1.8,13.74-1.75,18.12,1.85.94.82,1.66,2.04,1.42,3.29-.48-2.39-3.03-3.22-5.18-3.77-4.21-1.06-18.1-1.6-19.1,3.77h0Z"/></g></g><g class="cls-9"><g><path class="cls-7" d="m348.31,33.82c4.18-2.63,6.84-6.79,6.84-12.18,0-3.09-.87-6.21-2.41-9.03.04-.11.06-.23.06-.36V1.08c0-.83-.9-1.34-1.61-.93l-6.85,3.96c-2.53-1.37-5.36-2.17-8.36-2.17s-5.75.78-8.25,2.11l-6.6-3.81c-.72-.41-1.61.1-1.61.93v10.91c-1.71,2.96-2.7,6.28-2.7,9.56,0,5.4,2.66,9.56,6.84,12.18-5.55,8.29-9.17,21.18-9.17,32.41,0,18.3,9.62,25.25,21.49,25.25s21.49-6.95,21.49-25.25c0-11.23-3.63-24.13-9.17-32.41Z"/><path class="cls-7" d="m332.04,85.75c-1.43,3.58-2.27,7.64-2.51,10.03-.49,4.93.3,10.11,2.66,14.51,2.4,4.45,6.92,8.74,12.29,8.53,2.92-.11,4.99-1.92,4.25-4.96-.31-1.28-1.42-1.51-2.52-1.77-8.88-2.12-11.02-12.14-9.25-20.01,1.05-4.69,2.19-7.55,2.19-7.55,0,0-7.11,1.2-7.12,1.23Z"/><path class="cls-6" d="m323.83,33.81c-.37-2.64,2.52-4.34,4.74-5.13,5.21-1.8,13.74-1.75,18.12,1.85.94.82,1.66,2.04,1.42,3.29-.48-2.39-3.03-3.22-5.18-3.77-4.21-1.06-18.1-1.6-19.1,3.77h0Z"/></g></g><g><path class="cls-8" d="m286.03,33.82c4.18-2.63,6.84-6.79,6.84-12.18,0-3.09-.87-6.21-2.41-9.03.04-.11.06-.23.06-.36V1.08c0-.83-.9-1.34-1.61-.93l-6.85,3.96c-2.53-1.37-5.36-2.17-8.36-2.17s-5.75.78-8.25,2.11l-6.6-3.81c-.72-.41-1.61.1-1.61.93v10.91c-1.71,2.96-2.7,6.28-2.7,9.56,0,5.4,2.66,9.56,6.84,12.18-5.55,8.29-9.17,21.18-9.17,32.41,0,18.3,9.62,25.25,21.49,25.25s21.49-6.95,21.49-25.25c0-11.23-3.63-24.13-9.17-32.41Z"/><path class="cls-8" d="m269.76,85.75c-1.43,3.58-2.27,7.64-2.51,10.03-.49,4.93.3,10.11,2.66,14.51,2.4,4.45,6.92,8.74,12.29,8.53,2.92-.11,4.99-1.92,4.25-4.96-.31-1.28-1.42-1.51-2.52-1.77-8.88-2.12-11.02-12.14-9.25-20.01,1.05-4.69,2.19-7.55,2.19-7.55,0,0-7.11,1.2-7.12,1.23Z"/><path class="cls-6" d="m261.55,33.81c-.37-2.64,2.52-4.34,4.74-5.13,5.21-1.8,13.74-1.75,18.12,1.85.94.82,1.66,2.04,1.42,3.29-.48-2.39-3.03-3.22-5.18-3.77-4.21-1.06-18.1-1.6-19.1,3.77h0Z"/></g><path class="cls-3" d="m343.65,57.15c-.11,3.78-2.48,6.77-9.39,14.09-.57.63-1.68.54-2.25-.09-.57-.63-.46-1.54.14-2.13,6.15-6.32,8.59-9.85,8.42-11.84v-3.33h-7.66l-2.08,3.64c-.43.74-1.37,1-2.11.57-.74-.4-1-1.34-.57-2.08l4.55-7.83c.4-.74,1.34-1.02,2.08-.6.74.43,1,1.39.57,2.11l-.68,1.14h7.43c.83,0,1.54.68,1.54,1.54v4.81Z"/><path class="cls-4" d="m284.61,59.03c0,.85-.68,1.54-1.54,1.54h-18.67c-.85,0-1.54-.68-1.54-1.54s.68-1.51,1.54-1.51h18.67c.85,0,1.54.68,1.54,1.51Z"/><path class="cls-8" d="m90.67,51.35c-.85.91-1.91,1.99-3.36,3.1v15.57c0,.83-.68,1.54-1.54,1.54s-1.54-.71-1.54-1.54v-13.43c-1.96,1.28-4.18,2.7-7.63,4.44-.74.4-1.65.06-2.05-.68-.4-.77-.11-1.62.65-2.02,8.08-4.27,11.18-6.92,13.15-8.99.6-.63,1.54-.71,2.19-.14.65.54.71,1.54.11,2.16Z"/></g></g></svg>