<?xml version="1.0" encoding="UTF-8"?><svg id="_レイヤー_2" xmlns="http://www.w3.org/2000/svg" xmlns:xlink="http://www.w3.org/1999/xlink" viewBox="0 0 473.83 144.5"><defs><style>.cls-1{fill:none;}.cls-2{clip-path:url(#clippath);}.cls-3{fill:#f9cb92;}.cls-4{fill:#f9eed7;}.cls-5{fill:#efb835;}.cls-6{fill:#eec537;}.cls-7{fill:#fff;}.cls-8{fill:#cd851e;}.cls-9{fill:#ce2f2c;}.cls-10{fill:#cb2a1c;}.cls-11{fill:#d6124c;}.cls-12{fill:#231815;}.cls-13{clip-path:url(#clippath-1);}</style><clipPath id="clippath"><rect class="cls-1" x="83.87" width="289" height="144.5"/></clipPath><clipPath id="clippath-1"><polygon class="cls-1" points="161.66 144.5 83.87 144.5 83.87 132.77 160.89 137.01 161.66 144.5"/></clipPath></defs><g id="_レイヤー_1-2"><g><g class="cls-2"><circle class="cls-11" cx="228.63" cy="144.5" r="144.5"/><circle class="cls-7" cx="228.63" cy="144.5" r="68.63"/></g><g class="cls-13"><g><ellipse class="cls-6" cx="258.73" cy="144.5" rx="174.86" ry="144.5"/><ellipse class="cls-7" cx="258.73" cy="144.5" rx="98.73" ry="81.59"/></g></g></g><g><g><polyline class="cls-5" points="6.48 94.09 0 95.27 5.1 98.99"/><g><path class="cls-12" d="m12.03,131.11l-.67-.64c.16-.17.33-.34.5-.51,1.42-1.46,3.02-3.11,3.87-4.98l.84.38c-.91,2.02-2.58,3.74-4.05,5.25-.17.17-.33.34-.49.51Z"/><path class="cls-12" d="m13.18,132.67c-.16-.82-.43-1.33-.82-1.57-.6-.36-1.59-.08-2.63.22-.38.11-.78.23-1.18.32l-.2-.9c.37-.08.75-.2,1.12-.3,1.24-.36,2.42-.7,3.37-.13.62.38,1.03,1.09,1.25,2.18l-.91.18Z"/><path class="cls-12" d="m12.56,130.25l-.54-.76c-.12.08-.14.27-.1.34-.17-.29-1.59-1.05-2.53-1.22l.16-.91c.88.16,3.07,1.05,3.26,1.88.06.26-.04.5-.26.66Z"/></g><g><path class="cls-12" d="m28.37,132l-.9-.23c.06-.22.12-.45.18-.68.52-1.97,1.1-4.2.92-6.25l.92-.08c.2,2.21-.41,4.53-.94,6.57-.06.23-.12.45-.18.68Z"/><path class="cls-12" d="m25.61,134.18l-.62-.69c.28-.26.56-.54.83-.82.9-.93,1.76-1.81,2.87-1.77.73.02,1.43.44,2.16,1.28l-.7.61c-.55-.63-1.03-.95-1.49-.96-.71-.01-1.42.71-2.17,1.49-.28.29-.57.58-.87.86Z"/><path class="cls-12" d="m24.85,131.13l-.31-.87c.84-.3,3.19-.6,3.76.04.18.2.21.46.1.7l-.84-.39c-.06.13,0,.3.08.34-.29-.17-1.9-.13-2.8.19Z"/></g><path class="cls-6" d="m2.92,104.37c-.35-8.04,3.87-14.42,8.27-16.82,4.93-2.69,12.24-2.7,15.87,2.13,3.78,5.03,2.02,4.42,6.23,10.88,3.58,5.5,14.18,3.86,8.05,15.9-4.16,8.17-14.52,13.1-25.32,10.4-10.99-2.75-12.74-10.95-13.09-22.49"/><path class="cls-12" d="m15.34,94.48c0,1.15-.93,2.08-2.07,2.08s-2.08-.93-2.08-2.08.93-2.08,2.08-2.08,2.07.93,2.07,2.08Z"/><path class="cls-8" d="m26.28,118.81c-1.08,0-2.16-.16-3.21-.51-2.19-.72-4.98-2.69-5.86-4.93-.41-1.05-.36-2.09.15-3l.99.55c-.35.62-.37,1.29-.08,2.03.71,1.82,3.23,3.64,5.16,4.27,3.39,1.12,7.44.05,9.42-2.49,1.82-2.33.4-5.69-1.86-7.67-2.26-1.98-3.66-2.59-7.98-2.59v-1.13c4.62,0,6.3.75,8.73,2.88,2.65,2.32,4.25,6.34,2.01,9.22-1.68,2.15-4.53,3.38-7.46,3.38Z"/></g><path class="cls-6" d="m16.2,89.29s0-8.04,6.25-9.38c0,0,1.34,7.15-6.25,9.38Z"/></g><g><g><path class="cls-12" d="m431.22,134.56l-.99-1.1c.26-.24.53-.47.8-.72,2.3-2.04,4.9-4.35,6.18-7.04l1.33.63c-1.41,2.96-4.13,5.38-6.53,7.51-.27.24-.54.48-.8.71Z"/><path class="cls-12" d="m433.49,137.04c-.94-3.27-2.77-3.06-6.2-2.35-.64.13-1.31.27-1.99.37l-.22-1.46c.63-.09,1.28-.23,1.9-.35,3.07-.63,6.56-1.35,7.92,3.39l-1.42.41Z"/><path class="cls-12" d="m432.04,133.32l-.75-1.27c-.09.05-.19.16-.23.33-.04.17.02.3.04.33-.31-.46-2.88-1.75-4.55-2.09l.29-1.45c1.09.22,5.43,1.73,5.67,3.17.07.39-.12.77-.48.98Z"/></g><g><path class="cls-12" d="m449.26,135.75l-1.47-.17c.04-.35.09-.71.13-1.08.38-3.05.8-6.5-.01-9.36l1.42-.41c.9,3.15.45,6.76.06,9.94-.04.36-.09.72-.13,1.07Z"/><path class="cls-12" d="m445.15,140.03l-1.13-.95c.42-.49.81-1.02,1.2-1.53,1.89-2.5,4.04-5.34,8.18-2.68l-.8,1.24c-2.86-1.84-4.1-.47-6.21,2.32-.4.53-.81,1.07-1.25,1.59Z"/><path class="cls-12" d="m443.16,135.88l-.73-1.28c.97-.55,5.22-2.29,6.35-1.37.31.25.42.66.29,1.05l-1.4-.47c-.03.09-.04.25.05.4.08.15.21.22.25.23-.53-.14-3.32.59-4.8,1.44Z"/></g><polyline class="cls-5" points="413.81 88.46 407.09 89.95 412.69 93.68"/><path class="cls-9" d="m412.67,94.76c.11,2.75-4.68,6.12-4.09,10.12.69,4.67,3.74.83,6.33-.79"/><path class="cls-10" d="m423.83,78.89c-1.51-2.07-3.19-8.97-1.6-11.28,2.9-4.24,6.46,1.13,6.91,4.07,1.44-2.48,6.62-2.09,5.95,1.47,3.57-2.2,6.33,2.05,4.34,4.9-1.66,2.39-6.31,4.01-8.88,4.2"/><path class="cls-4" d="m467.99,95.57c.67-7.69-7.15-7.06-10.45-2.63-.53-3.08-2.3-4.42-4.44-4.07-2.83.47-4.52,2.28-5.46,4.49-1.11-1.52-1.87-3.08-2.1-4.53-1.49-9.33-12.2-17.75-25.01-10.83-13.81,7.47-7.47,27.06-7.47,27.06,3.73,11.95,11.38,24.64,34.16,23.15,2.92-.19,5.45-.79,7.63-1.69l.02.06c9.71-2.99,16.5-13.61,18.48-21.65,1.47-5.97-.46-11.15-5.36-9.37Z"/><path class="cls-12" d="m421.17,87.07c0,.97-.79,1.76-1.76,1.76s-1.76-.79-1.76-1.76.79-1.76,1.76-1.76,1.76.79,1.76,1.76Z"/><path class="cls-3" d="m443.49,117.18c-.98,0-2.11-.29-3.3-.85-1.79-.84-3.49-2.2-4.67-3.73l.64-.49c2.33,3.02,6.52,4.97,8.62,4.02,1.73-.78,1.65-3.24,1.27-5.16l-.16-.83.75.4c1.82.97,4.83,1.19,6.24-.05.81-.71.95-1.79.42-3.21-2.3-6.13-7.29-6.47-15.14-4.97l-.15-.79c8.06-1.54,13.56-1.15,16.05,5.48.83,2.2.11,3.45-.64,4.11-1.5,1.32-4.35,1.3-6.44.48.48,3.43-.72,4.77-1.86,5.29-.47.21-1.02.32-1.62.32Z"/></g></g></svg>